# xmcd CD database file
#
# Track frame offsets:
#	150
#	20029
#	48473
#	66583
#	79846
#	95737
#	115407
#	138484
#	156729
#	177177
#	209984
#	226947
#	243470
#	256189
#	268684
#	288063
#
# Disc length: 4205 seconds
#
# Revision: 0
# Processed by: cddbd v1.5.2PL0 Copyright (c) Steve Scherf et al.
# Submitted via: CDex 1.51
#
DISCID=f9106b10
DTITLE=Various Artist - Fania:Best Of New York
DYEAR=1900
DGENRE=Salsa
TTITLE0=I LIKE IT LIKE THAT/ PETE RODRIGUEZ
TTITLE1=PAULA C/ RUBEN BLADES WITH LOUIE RAMIREZ
TTITLE2=CODAZOS/ BOBBY VALENTINE
TTITLE3=SUBWAY JOE/ JOE BATAAN
TTITLE4=ABRAN PASO/ ISMAEL MIRANDA WITH LARRY HARLOW
TTITLE5=EL TODOPODEROSO /HECTOR LAVOE
TTITLE6=RICHIE'S JALA-JALA/ RICHIE RAY
TTITLE7=BANG BANG/ JOE CUBA
TTITLE8=LA HIJA DE LOLA/ CHARLIE PALMIERI
TTITLE9=ANACAONA/ FANIA ALL-STARS
TTITLE10=AH-AH,OH-NO/ WILLIE COLON
TTITLE11=YO SOY LATINO/ LARRY HARLOW
TTITLE12=DE COLORES/ ISMAEL RIVERA Y SUS CAHIMBOS
TTITLE13=MERCY MERCY BABY/ RAY BARRETTO 
TTITLE14=USTED ABUSO/ CELIA CRUZ WITH WILLIE COLON
TTITLE15=SOFRITO/ MONGO SANTAMARIA
EXTD=
EXTT0=
EXTT1=
EXTT2=
EXTT3=
EXTT4=
EXTT5=
EXTT6=
EXTT7=
EXTT8=
EXTT9=
EXTT10=
EXTT11=
EXTT12=
EXTT13=
EXTT14=
EXTT15=
PLAYORDER=
